<svg width="37" height="40" viewBox="0 0 37 40" fill="none" xmlns="http://www.w3.org/2000/svg">
<g clip-path="url(#clip0_500_148)">
<path d="M33.0117 11.3145C32.7737 10.7212 32.445 10.2051 32.0539 9.7601C32.5924 7.70142 32.479 5.50628 31.1982 5.05539C29.9117 4.6045 28.5571 6.28348 27.7977 8.2591C27.3783 8.33623 26.9703 8.46675 26.5679 8.66253C26.2958 7.31578 25.6101 6.16482 24.6749 5.37576C24.9186 3.25775 24.4879 1.09822 23.1561 0.854971C21.8129 0.605793 20.7134 2.48056 20.2487 4.55704C19.4836 4.82994 18.7638 5.30457 18.1687 5.95124C17.568 5.30457 16.8539 4.82994 16.0888 4.55704C15.6184 2.48056 14.5132 0.605793 13.1757 0.854971C11.8439 1.10415 11.4131 3.25775 11.6568 5.37576C10.7217 6.16482 10.0359 7.31578 9.7639 8.66253C9.36718 8.47268 8.95346 8.34216 8.53406 8.2591C7.77463 6.28348 6.40877 4.61043 5.1336 5.05539C3.85276 5.50628 3.73374 7.70142 4.27782 9.7601C3.88676 10.2051 3.55805 10.7212 3.32002 11.3145C2.76461 12.6909 2.71927 14.269 3.201 15.7582C3.40503 16.3989 3.69974 16.9981 4.07379 17.5321C4.76522 18.5228 5.23561 19.3653 5.55299 20.184L5.95538 21.2282C7.29289 24.6989 7.97299 28.3594 7.97299 32.1089V38.2138C7.97299 38.5401 8.22802 38.8071 8.53973 38.8071H27.809C28.1207 38.8071 28.3758 38.5401 28.3758 38.2138V32.1089C28.3758 28.3653 29.0559 24.6989 30.3934 21.2282L30.7958 20.184C31.1132 19.3653 31.5779 18.5228 32.275 17.5321C32.649 16.9981 32.9437 16.3989 33.1478 15.7582C33.6295 14.269 33.5842 12.6909 33.0288 11.3145H33.0117Z" fill="black"/>
<path d="M21.217 13.5485C21.3486 13.5725 21.4803 13.5845 21.6119 13.5845C22.2013 13.5845 22.7735 13.3449 23.2656 12.8896C23.8321 12.3685 24.2213 11.6137 24.3643 10.7691C24.5074 9.92443 24.3872 9.07381 24.021 8.37894C23.6376 7.64214 23.0253 7.16292 22.3043 7.03114C21.5833 6.89935 20.8565 7.13297 20.2557 7.69006C19.6892 8.21122 19.3 8.96599 19.157 9.81061C18.8537 11.6077 19.775 13.285 21.2113 13.5485H21.217ZM29.5659 11.0087C28.8678 10.7631 28.1067 10.8769 27.42 11.3381C26.7791 11.7694 26.2756 12.4643 26.0124 13.285C25.7491 14.1056 25.7434 14.9742 26.0124 15.729C26.2927 16.5257 26.8306 17.1008 27.5288 17.3523C27.7691 17.4362 28.0094 17.4781 28.2498 17.4781C29.4343 17.4781 30.6131 16.5257 31.0766 15.076C31.6374 13.3269 30.9622 11.5059 29.5659 11.0147V11.0087ZM13.3545 12.8956C13.8467 13.3509 14.4246 13.5905 15.0083 13.5905C15.1399 13.5905 15.2715 13.5785 15.4031 13.5545C16.8394 13.291 17.7607 11.6137 17.4574 9.8166C17.3144 8.97198 16.9253 8.21721 16.3588 7.69605C15.7579 7.13896 15.0255 6.90534 14.3102 7.03713C13.5891 7.16891 12.9826 7.64813 12.5935 8.38493C12.233 9.0798 12.1071 9.92443 12.2501 10.775C12.3932 11.6197 12.7823 12.3744 13.3488 12.8956H13.3545Z" fill="#FEC89A"/>
<path d="M9.19548 11.338C8.51452 10.8768 7.74772 10.763 7.0496 11.0086C6.35147 11.2542 5.81357 11.8292 5.53317 12.6319C5.26994 13.3807 5.27567 14.2493 5.53317 15.0759C5.7964 15.8966 6.29997 16.5915 6.94087 17.0228C7.38721 17.3223 7.87361 17.478 8.34857 17.478C8.59463 17.478 8.84641 17.4361 9.08103 17.3522C10.4773 16.861 11.1525 15.04 10.5917 13.2908C10.3285 12.4702 9.82494 11.7753 9.18403 11.344L9.19548 11.338ZM24.2968 22.1684C23.7245 21.6772 23.3526 21.1381 23.1752 20.569C22.4256 18.119 20.4227 16.4118 18.3055 16.4118C16.1882 16.4118 14.1911 18.125 13.4357 20.569C13.2641 21.1381 12.8864 21.6772 12.3142 22.1684C11.2899 23.0609 10.752 24.4207 10.8836 25.8164C11.0781 27.901 12.8063 29.5603 14.8091 29.5903C14.8263 29.5903 14.8492 29.5903 14.8663 29.5903C15.2326 29.5903 15.5988 29.5364 15.9536 29.4345C17.5101 28.9733 19.0951 28.9733 20.6516 29.4345C21.0236 29.5424 21.4127 29.5963 21.7961 29.5903C23.8046 29.5603 25.5271 27.901 25.7216 25.8164C25.8533 24.4267 25.3153 23.0609 24.291 22.1684H24.2968Z" fill="#FEC89A"/>
</g>
<defs>
<clipPath id="clip0_500_148">
<rect width="36.623" height="38.3376" fill="white" transform="translate(0 0.831177)"/>
</clipPath>
</defs>
</svg>
