<svg width="60" height="60" viewBox="0 0 60 60" fill="none" xmlns="http://www.w3.org/2000/svg">
<circle cx="30" cy="30" r="30" fill="black"/>
<g clip-path="url(#clip0_500_191)">
<path d="M33.0259 23.49C33.1607 23.5145 33.2954 23.5268 33.4302 23.5268C34.0337 23.5268 34.6197 23.2814 35.1236 22.8153C35.7036 22.2817 36.1021 21.5088 36.2486 20.644C36.3951 19.7791 36.272 18.9081 35.897 18.1966C35.5044 17.4422 34.8775 16.9515 34.1392 16.8165C33.4009 16.6816 32.6568 16.9208 32.0415 17.4912C31.4615 18.0249 31.063 18.7977 30.9165 19.6626C30.606 21.5027 31.5494 23.2201 33.0201 23.49H33.0259ZM41.5747 20.8893C40.8599 20.6378 40.0806 20.7544 39.3775 21.2267C38.7212 21.6683 38.2056 22.3798 37.9361 23.2201C37.6665 24.0604 37.6607 24.9498 37.9361 25.7227C38.2232 26.5384 38.774 27.1273 39.4888 27.3849C39.7349 27.4708 39.981 27.5137 40.2271 27.5137C41.44 27.5137 42.647 26.5384 43.1216 25.0541C43.6958 23.263 43.0044 21.3984 41.5747 20.8954V20.8893ZM24.9751 22.8214C25.479 23.2876 26.0708 23.5329 26.6685 23.5329C26.8033 23.5329 26.938 23.5207 27.0728 23.4961C28.5435 23.2262 29.4869 21.5088 29.1763 19.6687C29.0298 18.8039 28.6314 18.031 28.0513 17.4974C27.4361 16.9269 26.6861 16.6877 25.9536 16.8227C25.2154 16.9576 24.5943 17.4483 24.1958 18.2028C23.8267 18.9143 23.6978 19.7791 23.8443 20.6501C23.9908 21.5149 24.3892 22.2878 24.9693 22.8214H24.9751Z" fill="#FFB5A7"/>
<path d="M45.4017 21.3064C45.1556 20.693 44.8157 20.1594 44.4114 19.6994C44.9681 17.571 44.8509 15.3015 43.5267 14.8353C42.1966 14.3692 40.7962 16.105 40.0111 18.1475C39.5775 18.2273 39.1556 18.3622 38.7396 18.5646C38.4583 17.1723 37.7493 15.9823 36.7825 15.1666C37.0345 12.9768 36.5892 10.7442 35.2122 10.4927C33.8236 10.2351 32.6868 12.1733 32.2064 14.3201C31.4154 14.6023 30.6712 15.093 30.056 15.7615C29.4349 15.093 28.6966 14.6023 27.9056 14.3201C27.4193 12.1733 26.2767 10.2351 24.8939 10.4927C23.5169 10.7503 23.0716 12.9768 23.3236 15.1666C22.3568 15.9823 21.6478 17.1723 21.3665 18.5646C20.9564 18.3684 20.5286 18.2334 20.095 18.1475C19.3099 16.105 17.8978 14.3753 16.5794 14.8353C15.2552 15.3015 15.1322 17.571 15.6947 19.6994C15.2904 20.1594 14.9505 20.693 14.7044 21.3064C14.1302 22.7294 14.0833 24.361 14.5814 25.9005C14.7923 26.563 15.097 27.1825 15.4837 27.7345C16.1986 28.7588 16.6849 29.6298 17.013 30.4763L17.429 31.5558C18.8118 35.144 19.515 38.9285 19.515 42.805V49.1166C19.515 49.4539 19.7786 49.7299 20.1009 49.7299H40.0228C40.345 49.7299 40.6087 49.4539 40.6087 49.1166V42.805C40.6087 38.9346 41.3118 35.144 42.6946 31.5558L43.1107 30.4763C43.4388 29.6298 43.9193 28.7588 44.64 27.7345C45.0267 27.1825 45.3314 26.563 45.5423 25.9005C46.0403 24.361 45.9935 22.7294 45.4193 21.3064H45.4017ZM44.4114 25.508C44.2357 26.0539 43.9896 26.5568 43.6732 27.0046C42.8997 28.1148 42.3665 29.0655 42.0032 30.0101L41.5872 31.0896C40.1458 34.8251 39.4134 38.769 39.4134 42.7989V48.4971H20.6751V42.7989C20.6751 38.769 19.9427 34.8312 18.5013 31.0896L18.0853 30.0101C17.722 29.0655 17.1888 28.1087 16.4154 27.0046C16.099 26.5568 15.8529 26.0539 15.6771 25.508C15.2728 24.2567 15.3079 22.9318 15.7708 21.7848C15.9993 21.2205 16.3216 20.7298 16.7201 20.3373C17.1068 19.957 17.5579 19.6687 18.0618 19.4908C19.1751 19.0983 20.4232 19.3007 21.4896 20.0429C21.6654 20.1655 21.888 20.1778 22.0755 20.0858C22.263 19.9877 22.3861 19.7975 22.4036 19.5767C22.5384 17.4054 23.8978 15.6573 25.6966 15.326C27.1204 15.0684 28.6029 15.737 29.5755 17.0741C29.7982 17.3808 30.2845 17.3808 30.5072 17.0741C31.4798 15.737 32.9622 15.0684 34.3861 15.326C36.1907 15.6573 37.5443 17.4054 37.6849 19.5767C37.6966 19.7975 37.8255 19.9877 38.013 20.0858C38.2005 20.1839 38.4232 20.1655 38.5989 20.0429C39.6654 19.2945 40.9134 19.0921 42.0267 19.4908C42.5306 19.6687 42.9818 19.957 43.3685 20.3373C43.7611 20.7298 44.0892 21.2144 44.3177 21.7848C44.7806 22.9318 44.8157 24.2506 44.4114 25.508Z" fill="#FFB5A7"/>
<path d="M20.7166 21.2266C20.0193 20.7543 19.2341 20.6378 18.5193 20.8893C17.8044 21.1407 17.2537 21.7296 16.9666 22.5515C16.697 23.3182 16.7029 24.2076 16.9666 25.054C17.2361 25.8944 17.7517 26.6059 18.408 27.0475C18.865 27.3542 19.363 27.5137 19.8494 27.5137C20.1013 27.5137 20.3591 27.4707 20.5994 27.3848C22.0291 26.8819 22.7205 25.0172 22.1462 23.2262C21.8767 22.3859 21.3611 21.6744 20.7048 21.2328L20.7166 21.2266ZM36.1795 32.3163C35.5935 31.8134 35.2127 31.2613 35.031 30.6786C34.2634 28.17 32.2127 26.4219 30.0447 26.4219C27.8767 26.4219 25.8318 28.1761 25.0584 30.6786C24.8826 31.2613 24.4959 31.8134 23.9099 32.3163C22.8611 33.2302 22.3103 34.6226 22.4451 36.0517C22.6443 38.1863 24.4138 39.8853 26.4646 39.916C26.4822 39.916 26.5056 39.916 26.5232 39.916C26.8982 39.916 27.2732 39.8608 27.6365 39.7565C29.2302 39.2842 30.8533 39.2842 32.447 39.7565C32.8279 39.8669 33.2263 39.9221 33.6189 39.916C35.6756 39.8853 37.4392 38.1863 37.6384 36.0517C37.7732 34.6287 37.2224 33.2302 36.1736 32.3163H36.1795Z" fill="#FFB5A7"/>
</g>
<defs>
<clipPath id="clip0_500_191">
<rect width="37.5" height="39.2556" fill="white" transform="translate(11.2998 10.4681)"/>
</clipPath>
</defs>
</svg>
